<svg xmlns="http://www.w3.org/2000/svg" viewBox="0 0 409.97 409.89"><defs><style>.cls-1{fill:#b59d62;}</style></defs><g id="Layer_2" data-name="Layer 2"><g id="Layer_1-2" data-name="Layer 1"><path class="cls-1" d="M0,205C.23,91.91,91.17.06,204.91,0,318.47-.06,408.62,91.24,410,202.32c1.37,114.35-90.32,206.33-202.58,207.56C93.68,411.13.35,319.77,0,205Zm400,0c.56-106.47-86.3-194.93-194.53-195.16C97.59,9.66,10,97.15,10,204.76S96.76,398,201,400C311.58,402.08,400.49,312.39,400,205Z"/><path class="cls-1" d="M361.78,127.13,205.25,34.72,48.36,126.81a176.07,176.07,0,0,1,313.42.32Z"/><path class="cls-1" d="M205.18,86.51,34,187a171.36,171.36,0,0,1,8.24-36.1l163-95.69,162.67,96a170.62,170.62,0,0,1,8.16,36.12Z"/><path class="cls-1" d="M372.93,241.81,205.11,142.74,37.19,241.31l-.92.45a173.57,173.57,0,0,1-3.39-29.19L205.15,111.45,377.08,213a172.33,172.33,0,0,1-3.46,29.19Z"/><path class="cls-1" d="M326.43,270.64,205,199,83.64,270.23v59.14a172.45,172.45,0,0,1-27-34.64V254.8l148.41-87.12,148.36,87.59-.1,39.4a172.22,172.22,0,0,1-27.06,34.74Z"/><path class="cls-1" d="M277.91,298.26,205,255.2,132.1,298v65.26a171.57,171.57,0,0,1-27-15.74v-65L205,223.91l99.9,59-.17,64.68a172.5,172.5,0,0,1-27,15.74Z"/><path class="cls-1" d="M189.51,378.71a173.24,173.24,0,0,1-35.9-7.13v-61.3l51.34-30.14,51.44,30.37-.16,61.12a170.64,170.64,0,0,1-36.07,7.09Z"/></g></g></svg>
